<svg width="328" height="132" viewBox="0 0 328 132" fill="none" xmlns="http://www.w3.org/2000/svg">
<rect width="329" height="132" transform="translate(-0.5)" fill="#8EC2F2"/>
<rect x="49.5" y="30" width="72" height="72" rx="36" fill="white"/>
<g clip-path="url(#clip0_0_598)">
<path fill-rule="evenodd" clip-rule="evenodd" d="M96.9583 75.3334C96.9583 75.3334 98.5 75.3334 98.5 73.7779C98.5 72.2223 96.9583 67.5556 90.7917 67.5556C84.625 67.5556 83.0833 72.2223 83.0833 73.7779C83.0833 75.3334 84.625 75.3334 84.625 75.3334H96.9583ZM84.6589 73.7779H96.9244C96.9316 73.777 96.9388 73.776 96.946 73.7747L96.9583 73.7716C96.9553 73.361 96.7009 72.1694 95.7867 71.0961C94.9357 70.0896 93.4403 69.1112 90.7917 69.1112C88.1446 69.1112 86.6492 70.0912 85.7967 71.0961C84.8825 72.1694 84.6266 73.3625 84.625 73.7716C84.6363 73.7738 84.6476 73.7759 84.6589 73.7779ZM90.7917 64.4445C91.6094 64.4445 92.3937 64.1167 92.9719 63.5333C93.5502 62.9499 93.875 62.1585 93.875 61.3334C93.875 60.5083 93.5502 59.717 92.9719 59.1335C92.3937 58.5501 91.6094 58.2223 90.7917 58.2223C89.9739 58.2223 89.1897 58.5501 88.6114 59.1335C88.0332 59.717 87.7083 60.5083 87.7083 61.3334C87.7083 62.1585 88.0332 62.9499 88.6114 63.5333C89.1897 64.1167 89.9739 64.4445 90.7917 64.4445ZM95.4167 61.3334C95.4167 61.9462 95.297 62.5531 95.0646 63.1193C94.8322 63.6855 94.4915 64.1999 94.062 64.6332C93.6326 65.0666 93.1227 65.4103 92.5616 65.6449C92.0005 65.8794 91.399 66.0001 90.7917 66.0001C90.1843 66.0001 89.5829 65.8794 89.0218 65.6449C88.4606 65.4103 87.9508 65.0666 87.5213 64.6332C87.0918 64.1999 86.7512 63.6855 86.5187 63.1193C86.2863 62.5531 86.1667 61.9462 86.1667 61.3334C86.1667 60.0957 86.654 58.9088 87.5213 58.0336C88.3887 57.1584 89.565 56.6667 90.7917 56.6667C92.0183 56.6667 93.1947 57.1584 94.062 58.0336C94.9294 58.9088 95.4167 60.0957 95.4167 61.3334ZM84.5263 67.9912C83.9096 67.7953 83.2739 67.6664 82.6301 67.607C82.2683 67.5723 81.9051 67.5551 81.5417 67.5556C75.375 67.5556 73.8333 72.2223 73.8333 73.7779C73.8333 74.8154 74.3467 75.3334 75.375 75.3334H81.8747C81.6461 74.8478 81.5322 74.3154 81.5417 73.7779C81.5417 72.2067 82.1229 70.6014 83.2221 69.2605C83.5967 68.8032 84.033 68.3754 84.5263 67.9912ZM81.4183 69.1112C78.8468 69.1423 77.3869 70.1067 76.5467 71.0961C75.6263 72.1756 75.375 73.3719 75.375 73.7779H80C80 72.1523 80.498 70.533 81.4183 69.1112ZM76.1458 62.1112C76.1458 60.8735 76.6331 59.6865 77.5005 58.8114C78.3678 57.9362 79.5442 57.4445 80.7708 57.4445C81.9975 57.4445 83.1739 57.9362 84.0412 58.8114C84.9086 59.6865 85.3958 60.8735 85.3958 62.1112C85.3958 63.3489 84.9086 64.5359 84.0412 65.411C83.1739 66.2862 81.9975 66.7779 80.7708 66.7779C79.5442 66.7779 78.3678 66.2862 77.5005 65.411C76.6331 64.5359 76.1458 63.3489 76.1458 62.1112ZM80.7708 59.0001C79.9531 59.0001 79.1688 59.3279 78.5906 59.9113C78.0124 60.4948 77.6875 61.2861 77.6875 62.1112C77.6875 62.9363 78.0124 63.7276 78.5906 64.3111C79.1688 64.8945 79.9531 65.2223 80.7708 65.2223C81.5886 65.2223 82.3729 64.8945 82.9511 64.3111C83.5293 63.7276 83.8542 62.9363 83.8542 62.1112C83.8542 61.2861 83.5293 60.4948 82.9511 59.9113C82.3729 59.3279 81.5886 59.0001 80.7708 59.0001Z" fill="#23A6F0"/>
</g>
<path d="M145.94 60.816V63.04H140.372V65.344H145.38V67.472H140.372V69.792H146.116V72H137.876V60.816H145.94ZM156.109 67.36V72H153.693V67.296C153.693 66.6133 153.586 66.112 153.373 65.792C153.17 65.472 152.834 65.312 152.365 65.312C151.906 65.312 151.495 65.488 151.133 65.84C150.781 66.1813 150.605 66.688 150.605 67.36V72H148.205V63.392H150.605V64.368C151.266 63.6213 152.023 63.248 152.877 63.248C153.421 63.248 153.911 63.408 154.349 63.728C154.797 64.048 155.133 64.4373 155.357 64.896C155.687 64.3733 156.13 63.968 156.685 63.68C157.25 63.392 157.815 63.248 158.381 63.248C159.394 63.248 160.21 63.552 160.829 64.16C161.447 64.7573 161.757 65.6267 161.757 66.768V72H159.341V67.296C159.341 65.9733 158.855 65.312 157.885 65.312C157.405 65.312 156.989 65.488 156.637 65.84C156.285 66.1813 156.109 66.688 156.109 67.36ZM171.495 70.752C170.524 71.6693 169.383 72.128 168.071 72.128C166.77 72.128 165.692 71.728 164.839 70.928C163.986 70.1173 163.559 69.0347 163.559 67.68C163.559 66.3253 163.991 65.248 164.855 64.448C165.73 63.648 166.759 63.248 167.943 63.248C169.127 63.248 170.13 63.6053 170.951 64.32C171.783 65.0347 172.199 66.016 172.199 67.264V68.544H165.927C166.002 69.0133 166.247 69.3973 166.663 69.696C167.079 69.9947 167.548 70.144 168.071 70.144C168.914 70.144 169.607 69.8613 170.151 69.296L171.495 70.752ZM169.767 66.832C169.714 66.32 169.522 65.9253 169.191 65.648C168.86 65.3707 168.455 65.232 167.975 65.232C167.506 65.232 167.074 65.376 166.679 65.664C166.284 65.952 166.055 66.3413 165.991 66.832H169.767ZM178.558 65.504C177.843 65.504 177.31 65.76 176.958 66.272C176.606 66.7733 176.43 67.44 176.43 68.272V72H174.03V63.392H176.43V64.528C176.739 64.176 177.123 63.8773 177.582 63.632C178.051 63.3867 178.526 63.2587 179.006 63.248L179.022 65.504H178.558ZM186.74 67.52C186.74 66.8267 186.548 66.2827 186.164 65.888C185.78 65.4933 185.305 65.296 184.74 65.296C184.175 65.296 183.684 65.4933 183.268 65.888C182.863 66.2827 182.66 66.8213 182.66 67.504C182.66 68.1867 182.857 68.7413 183.252 69.168C183.657 69.584 184.148 69.792 184.724 69.792C185.3 69.792 185.78 69.584 186.164 69.168C186.548 68.752 186.74 68.2027 186.74 67.52ZM187.076 70.544C186.319 71.3867 185.375 71.808 184.244 71.808C183.124 71.808 182.175 71.4293 181.396 70.672C180.628 69.904 180.244 68.8853 180.244 67.616C180.244 66.336 180.639 65.2907 181.428 64.48C182.228 63.6587 183.14 63.248 184.164 63.248C185.188 63.248 186.036 63.6693 186.708 64.512V63.376H189.108V70.88C189.108 71.648 188.975 72.3307 188.708 72.928C188.441 73.5253 188.084 73.9947 187.636 74.336C186.751 75.04 185.705 75.392 184.5 75.392C183.86 75.392 183.204 75.2853 182.532 75.072C181.871 74.8693 181.289 74.576 180.788 74.192L181.716 72.384C182.505 72.9813 183.337 73.28 184.212 73.28C185.097 73.28 185.796 73.0613 186.308 72.624C186.82 72.1867 187.076 71.4933 187.076 70.544ZM198.936 70.752C197.965 71.6693 196.824 72.128 195.512 72.128C194.21 72.128 193.133 71.728 192.28 70.928C191.426 70.1173 191 69.0347 191 67.68C191 66.3253 191.432 65.248 192.296 64.448C193.17 63.648 194.2 63.248 195.384 63.248C196.568 63.248 197.57 63.6053 198.392 64.32C199.224 65.0347 199.64 66.016 199.64 67.264V68.544H193.368C193.442 69.0133 193.688 69.3973 194.104 69.696C194.52 69.9947 194.989 70.144 195.512 70.144C196.354 70.144 197.048 69.8613 197.592 69.296L198.936 70.752ZM197.208 66.832C197.154 66.32 196.962 65.9253 196.632 65.648C196.301 65.3707 195.896 65.232 195.416 65.232C194.946 65.232 194.514 65.376 194.12 65.664C193.725 65.952 193.496 66.3413 193.432 66.832H197.208ZM203.87 67.2V72H201.47V63.392H203.87V64.352C204.596 63.616 205.412 63.248 206.318 63.248C207.225 63.248 207.982 63.568 208.59 64.208C209.209 64.848 209.518 65.7013 209.518 66.768V72H207.118V67.136C207.118 65.8133 206.633 65.152 205.662 65.152C205.182 65.152 204.761 65.328 204.398 65.68C204.046 66.0213 203.87 66.528 203.87 67.2ZM215.917 70C216.717 70 217.437 69.6 218.077 68.8L219.501 70.4C218.392 71.552 217.192 72.128 215.901 72.128C214.61 72.128 213.517 71.7227 212.621 70.912C211.736 70.0907 211.293 69.024 211.293 67.712C211.293 66.3893 211.741 65.3173 212.637 64.496C213.544 63.664 214.616 63.248 215.853 63.248C216.472 63.248 217.096 63.376 217.725 63.632C218.365 63.888 218.925 64.2667 219.405 64.768L218.157 66.4C217.88 66.0693 217.538 65.8133 217.133 65.632C216.738 65.4507 216.344 65.36 215.949 65.36C215.32 65.36 214.776 65.568 214.317 65.984C213.869 66.3893 213.645 66.96 213.645 67.696C213.645 68.4213 213.869 68.9867 214.317 69.392C214.776 69.7973 215.309 70 215.917 70ZM222.69 75.392C221.847 75.392 221.052 75.0507 220.306 74.368L221.394 72.592C221.799 72.9867 222.215 73.184 222.642 73.184C222.866 73.184 223.058 73.072 223.218 72.848C223.378 72.6347 223.458 72.4053 223.458 72.16C223.458 71.9147 222.348 68.992 220.13 63.392H222.69L224.786 68.752L226.882 63.392H229.442L225.442 73.536C225.207 74.1227 224.839 74.576 224.338 74.896C223.847 75.2267 223.298 75.392 222.69 75.392ZM240.434 69.792C241.661 69.792 242.663 69.3067 243.442 68.336L245.042 69.984C243.773 71.4133 242.274 72.128 240.546 72.128C238.829 72.128 237.41 71.584 236.29 70.496C235.181 69.408 234.626 68.0373 234.626 66.384C234.626 64.72 235.191 63.3333 236.322 62.224C237.463 61.1147 238.855 60.56 240.498 60.56C242.333 60.56 243.869 61.2587 245.106 62.656L243.554 64.416C242.765 63.4347 241.783 62.944 240.61 62.944C239.671 62.944 238.866 63.2533 238.194 63.872C237.533 64.48 237.202 65.3067 237.202 66.352C237.202 67.3867 237.517 68.2187 238.146 68.848C238.775 69.4773 239.538 69.792 240.434 69.792ZM254.095 72H251.839V70.96C251.22 71.7387 250.452 72.128 249.535 72.128C248.628 72.128 247.866 71.8667 247.247 71.344C246.628 70.8107 246.319 70.1067 246.319 69.232C246.319 68.3467 246.639 67.6853 247.279 67.248C247.919 66.8107 248.794 66.592 249.903 66.592H251.695V66.544C251.695 65.6267 251.21 65.168 250.239 65.168C249.823 65.168 249.38 65.2533 248.911 65.424C248.452 65.584 248.063 65.7867 247.743 66.032L246.671 64.48C247.802 63.6587 249.092 63.248 250.543 63.248C251.588 63.248 252.442 63.5093 253.103 64.032C253.764 64.5547 254.095 65.3813 254.095 66.512V72ZM251.679 68.72V68.304H250.175C249.215 68.304 248.735 68.6027 248.735 69.2C248.735 69.5093 248.847 69.7493 249.071 69.92C249.306 70.08 249.636 70.16 250.063 70.16C250.49 70.16 250.863 70.032 251.183 69.776C251.514 69.5093 251.679 69.1573 251.679 68.72ZM262.863 69.328C262.863 70.1707 262.548 70.848 261.919 71.36C261.3 71.872 260.511 72.128 259.551 72.128C258.911 72.128 258.244 72.016 257.551 71.792C256.858 71.5573 256.234 71.216 255.679 70.768L256.735 69.264C257.631 69.9573 258.586 70.304 259.599 70.304C259.908 70.304 260.154 70.2453 260.335 70.128C260.516 70 260.607 69.8347 260.607 69.632C260.607 69.4293 260.479 69.2427 260.223 69.072C259.978 68.9013 259.615 68.7413 259.135 68.592C258.666 68.4427 258.303 68.3147 258.047 68.208C257.802 68.1013 257.519 67.9467 257.199 67.744C256.548 67.3387 256.223 66.7413 256.223 65.952C256.223 65.152 256.543 64.5013 257.183 64C257.823 63.4987 258.65 63.248 259.663 63.248C260.676 63.248 261.69 63.5893 262.703 64.272L261.807 65.872C261.06 65.36 260.314 65.104 259.567 65.104C258.831 65.104 258.463 65.3067 258.463 65.712C258.463 65.936 258.58 66.112 258.815 66.24C259.05 66.368 259.439 66.5173 259.983 66.688C260.527 66.8587 260.911 66.992 261.135 67.088C261.37 67.1733 261.647 67.312 261.967 67.504C262.564 67.8667 262.863 68.4747 262.863 69.328ZM272.251 70.752C271.281 71.6693 270.139 72.128 268.827 72.128C267.526 72.128 266.449 71.728 265.595 70.928C264.742 70.1173 264.315 69.0347 264.315 67.68C264.315 66.3253 264.747 65.248 265.611 64.448C266.486 63.648 267.515 63.248 268.699 63.248C269.883 63.248 270.886 63.6053 271.707 64.32C272.539 65.0347 272.955 66.016 272.955 67.264V68.544H266.683C266.758 69.0133 267.003 69.3973 267.419 69.696C267.835 69.9947 268.305 70.144 268.827 70.144C269.67 70.144 270.363 69.8613 270.907 69.296L272.251 70.752ZM270.523 66.832C270.47 66.32 270.278 65.9253 269.947 65.648C269.617 65.3707 269.211 65.232 268.731 65.232C268.262 65.232 267.83 65.376 267.435 65.664C267.041 65.952 266.811 66.3413 266.747 66.832H270.523Z" fill="white"/>
<defs>
<clipPath id="clip0_0_598">
<rect width="24" height="19.7647" fill="white" transform="translate(74 56)"/>
</clipPath>
</defs>
</svg>
