<svg width="72" height="72" viewBox="0 0 72 72" fill="none" xmlns="http://www.w3.org/2000/svg">
<rect width="72" height="72" rx="36" fill="white"/>
<g clip-path="url(#clip0_0_614)">
<path fill-rule="evenodd" clip-rule="evenodd" d="M47.4583 45.3334C47.4583 45.3334 49 45.3334 49 43.7779C49 42.2223 47.4583 37.5556 41.2917 37.5556C35.125 37.5556 33.5833 42.2223 33.5833 43.7779C33.5833 45.3334 35.125 45.3334 35.125 45.3334H47.4583ZM35.1589 43.7779H47.4244C47.4316 43.777 47.4388 43.776 47.446 43.7747L47.4583 43.7716C47.4553 43.361 47.2009 42.1694 46.2867 41.0961C45.4357 40.0896 43.9403 39.1112 41.2917 39.1112C38.6446 39.1112 37.1492 40.0912 36.2967 41.0961C35.3825 42.1694 35.1266 43.3625 35.125 43.7716C35.1363 43.7738 35.1476 43.7759 35.1589 43.7779ZM41.2917 34.4445C42.1094 34.4445 42.8937 34.1167 43.4719 33.5333C44.0502 32.9499 44.375 32.1585 44.375 31.3334C44.375 30.5083 44.0502 29.717 43.4719 29.1335C42.8937 28.5501 42.1094 28.2223 41.2917 28.2223C40.4739 28.2223 39.6897 28.5501 39.1114 29.1335C38.5332 29.717 38.2083 30.5083 38.2083 31.3334C38.2083 32.1585 38.5332 32.9499 39.1114 33.5333C39.6897 34.1167 40.4739 34.4445 41.2917 34.4445ZM45.9167 31.3334C45.9167 31.9462 45.797 32.5531 45.5646 33.1193C45.3322 33.6855 44.9915 34.1999 44.562 34.6332C44.1326 35.0666 43.6227 35.4103 43.0616 35.6449C42.5005 35.8794 41.899 36.0001 41.2917 36.0001C40.6843 36.0001 40.0829 35.8794 39.5218 35.6449C38.9606 35.4103 38.4508 35.0666 38.0213 34.6332C37.5918 34.1999 37.2512 33.6855 37.0187 33.1193C36.7863 32.5531 36.6667 31.9462 36.6667 31.3334C36.6667 30.0957 37.154 28.9088 38.0213 28.0336C38.8887 27.1584 40.065 26.6667 41.2917 26.6667C42.5183 26.6667 43.6947 27.1584 44.562 28.0336C45.4294 28.9088 45.9167 30.0957 45.9167 31.3334ZM35.0263 37.9912C34.4096 37.7953 33.7739 37.6664 33.1301 37.607C32.7683 37.5723 32.4051 37.5551 32.0417 37.5556C25.875 37.5556 24.3333 42.2223 24.3333 43.7779C24.3333 44.8154 24.8467 45.3334 25.875 45.3334H32.3747C32.1461 44.8478 32.0322 44.3154 32.0417 43.7779C32.0417 42.2067 32.6229 40.6014 33.7221 39.2605C34.0967 38.8032 34.533 38.3754 35.0263 37.9912ZM31.9183 39.1112C29.3468 39.1423 27.8869 40.1067 27.0467 41.0961C26.1263 42.1756 25.875 43.3719 25.875 43.7779H30.5C30.5 42.1523 30.998 40.533 31.9183 39.1112ZM26.6458 32.1112C26.6458 30.8735 27.1331 29.6865 28.0005 28.8114C28.8678 27.9362 30.0442 27.4445 31.2708 27.4445C32.4975 27.4445 33.6739 27.9362 34.5412 28.8114C35.4086 29.6865 35.8958 30.8735 35.8958 32.1112C35.8958 33.3489 35.4086 34.5359 34.5412 35.411C33.6739 36.2862 32.4975 36.7779 31.2708 36.7779C30.0442 36.7779 28.8678 36.2862 28.0005 35.411C27.1331 34.5359 26.6458 33.3489 26.6458 32.1112ZM31.2708 29.0001C30.4531 29.0001 29.6688 29.3279 29.0906 29.9113C28.5124 30.4948 28.1875 31.2861 28.1875 32.1112C28.1875 32.9363 28.5124 33.7276 29.0906 34.3111C29.6688 34.8945 30.4531 35.2223 31.2708 35.2223C32.0886 35.2223 32.8729 34.8945 33.4511 34.3111C34.0293 33.7276 34.3542 32.9363 34.3542 32.1112C34.3542 31.2861 34.0293 30.4948 33.4511 29.9113C32.8729 29.3279 32.0886 29.0001 31.2708 29.0001Z" fill="#23A6F0"/>
</g>
<defs>
<clipPath id="clip0_0_614">
<rect width="24" height="19.7647" fill="white" transform="translate(24.5 26)"/>
</clipPath>
</defs>
</svg>
